<?xml version="1.0" standalone="no"?>
<!DOCTYPE svg PUBLIC "-//W3C//DTD SVG 20010904//EN"
 "http://www.w3.org/TR/2001/REC-SVG-20010904/DTD/svg10.dtd">
<svg version="1.0" xmlns="http://www.w3.org/2000/svg"
 width="1200.000000pt" height="1200.000000pt" viewBox="0 0 1200.000000 1200.000000"
 preserveAspectRatio="xMidYMid meet">
<metadata>
Created by potrace 1.11, written by Peter Selinger 2001-2013
</metadata>
<g transform="translate(0.000000,1200.000000) scale(0.100000,-0.100000)"
fill="#000000" stroke="none">
<path d="M0 6000 l0 -6000 6000 0 6000 0 0 6000 0 6000 -6000 0 -6000 0 0
-6000z m4823 2100 c55 -21 70 -33 132 -106 45 -53 54 -100 55 -266 l0 -137
-55 -16 c-30 -8 -55 -20 -55 -25 0 -18 34 -10 90 20 173 93 250 -15 361 -505
10 -44 23 -114 29 -155 10 -70 9 -81 -21 -180 -17 -58 -42 -143 -55 -190 -45
-155 -62 -197 -104 -270 -49 -84 -79 -105 -162 -114 -34 -3 -63 -8 -65 -10 -2
-1 -10 -76 -18 -165 -17 -178 -23 -212 -60 -319 -13 -40 -29 -99 -35 -130 -5
-31 -18 -100 -30 -152 -28 -132 -26 -183 8 -249 15 -30 37 -66 50 -80 46 -50
92 -165 132 -329 22 -89 44 -190 49 -225 12 -83 24 -110 70 -165 60 -71 65
-92 41 -169 -11 -36 -20 -88 -20 -117 0 -55 -25 -120 -57 -149 -17 -15 -36
-17 -119 -15 -120 4 -130 16 -65 82 l42 43 -11 94 c-24 207 -69 372 -137 499
-19 36 -61 115 -94 175 -32 61 -59 113 -59 116 0 7 -73 135 -111 195 -10 17
-29 69 -41 115 -19 77 -20 100 -14 284 3 110 9 223 12 250 4 28 4 48 1 45 -6
-6 -30 -232 -47 -435 -10 -126 -24 -247 -56 -505 -8 -69 -27 -181 -41 -250
-31 -148 -33 -264 -9 -395 10 -49 27 -110 39 -135 27 -56 29 -123 4 -147 -14
-15 -35 -18 -107 -18 -110 0 -118 6 -104 76 7 31 8 86 3 142 -4 51 -17 271
-30 489 -21 380 -21 402 -5 515 26 189 18 378 -29 673 -39 239 -39 258 -16
344 12 44 44 127 71 186 28 59 50 110 50 114 0 3 -11 4 -25 0 -60 -15 -217
109 -295 232 -45 71 -49 104 -20 152 11 18 122 135 248 261 214 216 230 230
282 244 30 9 69 18 85 21 86 14 143 62 131 111 -9 35 -41 65 -71 65 -34 0
-116 29 -138 48 -17 15 -18 27 -12 99 6 73 5 84 -14 110 -19 26 -20 31 -7 78
25 91 51 136 113 197 26 26 64 51 83 56 63 18 174 14 233 -8z m2328 -157 c52
-25 140 -86 183 -128 22 -20 64 -48 95 -61 31 -14 69 -37 84 -52 27 -25 28
-29 25 -117 -4 -132 8 -163 99 -248 161 -152 240 -238 281 -306 23 -39 42 -78
42 -86 0 -7 4 -16 9 -19 5 -3 23 -31 41 -62 46 -81 89 -100 235 -97 124 2 303
30 385 62 31 11 80 36 110 55 30 19 91 52 134 75 98 51 139 52 256 10 47 -17
99 -34 115 -39 17 -5 62 -20 100 -34 98 -36 158 -34 221 5 74 47 210 165 254
220 23 29 49 80 65 128 47 141 103 196 235 226 118 26 271 74 320 100 88 46
219 95 252 95 39 0 130 -40 164 -73 92 -85 96 -218 12 -380 -17 -32 -41 -65
-53 -73 -13 -8 -29 -29 -36 -45 -11 -27 -9 -36 9 -75 28 -56 28 -62 -4 -123
-20 -37 -41 -60 -76 -81 l-50 -31 18 -27 c9 -15 25 -35 35 -45 25 -23 33 -59
25 -110 -13 -87 -15 -82 26 -80 21 1 51 9 67 18 38 19 134 19 186 -1 22 -8 54
-20 70 -25 37 -12 107 -59 113 -76 8 -26 -48 -34 -143 -20 -115 17 -145 9
-226 -58 -33 -27 -80 -58 -104 -67 -42 -17 -46 -17 -89 3 -48 21 -114 93 -205
224 -64 93 -79 94 -119 11 -35 -73 -57 -92 -120 -102 -35 -5 -63 0 -142 26
l-97 33 -104 -21 c-98 -20 -411 -52 -844 -87 -104 -8 -328 -20 -496 -27 -344
-12 -367 -10 -535 55 -195 76 -219 81 -439 81 -110 1 -285 -5 -390 -13 -104
-8 -296 -15 -425 -15 -196 -1 -246 2 -300 17 -107 29 -106 35 15 86 39 17 122
58 185 91 128 69 99 66 255 24 51 -14 72 -15 135 -5 41 6 97 18 125 26 103 29
322 75 387 81 82 7 118 30 118 77 0 36 -90 219 -219 446 -44 78 -81 148 -81
153 0 12 -151 291 -162 298 -4 3 -16 26 -27 51 -11 25 -30 54 -42 65 -26 23
-51 69 -42 78 11 11 49 6 84 -11z m-5682 -1417 c49 -31 63 -49 234 -304 59
-88 63 -92 92 -87 160 32 168 31 269 -38 36 -25 101 -57 145 -72 43 -14 118
-46 167 -71 85 -44 92 -46 172 -45 95 1 112 8 140 53 20 31 177 190 289 293
84 76 149 109 236 120 58 7 58 6 94 -31 53 -57 67 -96 66 -191 l0 -81 86 -7
c114 -9 143 -19 184 -64 44 -48 61 -102 88 -271 11 -74 38 -220 59 -325 21
-104 41 -207 45 -229 3 -21 19 -66 34 -100 16 -33 31 -79 35 -100 6 -29 19
-51 49 -78 23 -21 48 -38 55 -38 7 0 18 -11 24 -25 20 -43 -6 -58 -109 -63
-106 -5 -124 5 -179 104 -19 35 -39 66 -44 69 -4 2 -10 -20 -12 -50 -3 -30 -8
-58 -12 -62 -16 -17 -46 40 -70 134 -30 119 -32 150 -9 175 23 26 10 79 -57
233 -28 66 -68 166 -87 222 -35 100 -37 102 -62 96 -87 -21 -120 -86 -121
-233 0 -58 -6 -136 -12 -175 -20 -125 -16 -185 15 -229 64 -92 19 -111 -110
-46 -44 22 -87 48 -97 59 -10 11 -24 52 -32 90 -19 104 -21 106 -74 71 -25
-17 -48 -30 -52 -30 -17 0 -7 37 17 62 15 17 29 48 35 80 12 64 31 93 76 120
24 14 34 27 34 44 0 31 -22 31 -82 -1 -26 -14 -52 -25 -59 -25 -6 0 -28 -15
-48 -32 -113 -101 -183 -139 -266 -146 -48 -4 -54 -1 -130 53 -44 32 -93 70
-110 86 -81 76 -125 110 -169 129 -53 22 -196 37 -462 47 -146 5 -154 5 -235
-22 -46 -15 -126 -45 -177 -67 -51 -22 -114 -45 -140 -53 -26 -7 -78 -23 -116
-34 -38 -11 -147 -32 -243 -46 -95 -14 -184 -30 -198 -35 -32 -12 -63 -63 -71
-117 -8 -54 -19 -62 -38 -25 -20 39 -41 55 -65 47 -19 -6 -100 -118 -114 -157
-8 -22 -27 -24 -27 -2 0 8 -7 22 -16 31 -33 34 13 136 107 237 104 112 125
121 514 223 77 20 144 39 148 43 10 9 -54 50 -77 50 -18 0 -123 56 -132 71 -3
5 6 14 21 21 30 14 37 36 33 109 -3 53 -3 54 -38 59 l-35 6 50 32 c74 48 114
56 280 57 148 0 151 0 217 -32 37 -17 75 -41 85 -52 20 -24 55 -28 72 -8 8 11
6 27 -8 68 -26 73 -84 198 -116 248 -29 47 -34 46 -109 -13 l-39 -30 31 -13
c44 -18 53 -69 21 -112 -19 -27 -29 -31 -67 -31 -87 0 -133 43 -132 124 2 93
209 356 282 356 10 0 36 -11 57 -24z m4522 -93 c8 -8 5 -17 -10 -32 -26 -26
-27 -19 56 -261 34 -101 63 -191 63 -199 0 -24 120 -346 143 -382 7 -10 20
-22 29 -25 10 -3 18 -14 18 -24 0 -24 -76 -35 -207 -28 -114 6 -128 16 -87 59
24 25 29 38 28 78 -1 117 -158 263 -299 279 -37 4 -45 1 -55 -18 -25 -47 -90
-252 -90 -285 0 -34 5 -42 45 -70 16 -11 18 -16 7 -27 -14 -14 -264 -19 -278
-6 -4 4 15 31 42 60 52 56 59 69 124 243 23 61 60 157 82 215 35 94 52 143
103 300 19 57 19 74 0 90 -20 17 -19 37 3 44 33 9 271 1 283 -11z m1648 -212
c14 -9 9 -69 -10 -119 -9 -23 -13 -24 -68 -17 -119 14 -162 -33 -182 -196 -11
-90 -7 -278 7 -327 4 -12 20 -30 36 -38 19 -10 27 -19 21 -25 -24 -24 -303
-22 -303 2 0 5 11 14 24 18 13 5 27 20 31 33 4 13 9 140 12 283 l5 260 -36 34
c-20 19 -36 40 -36 47 0 13 67 24 142 24 49 0 49 0 69 -46 l20 -45 41 37 c71
64 185 102 227 75z m584 -29 c89 -42 145 -93 186 -170 35 -65 36 -71 36 -172
0 -77 -4 -113 -16 -135 -9 -16 -26 -49 -38 -72 -29 -54 -80 -99 -151 -132 -47
-22 -71 -26 -171 -29 -110 -3 -120 -2 -170 23 -80 40 -114 69 -158 133 -47 70
-61 116 -61 204 0 168 85 297 237 357 69 27 88 30 171 26 55 -3 88 -11 135
-33z m705 26 l152 -12 0 -113 c0 -94 -3 -113 -15 -113 -8 0 -15 8 -15 18 0 27
-58 91 -98 108 -99 41 -174 40 -231 -4 -52 -41 15 -102 167 -153 53 -17 101
-35 107 -40 5 -5 16 -9 25 -9 26 0 97 -56 115 -89 20 -40 19 -127 -4 -176 -19
-43 -80 -103 -133 -132 -28 -15 -56 -18 -178 -17 -80 0 -180 4 -222 9 l-78 8
0 111 c0 119 8 186 21 186 4 0 15 -24 23 -54 35 -120 203 -212 314 -172 92 33
122 73 95 128 -17 35 -58 59 -178 103 -158 59 -211 90 -229 136 -30 74 -11
175 42 222 22 20 128 66 152 67 8 0 84 -5 168 -12z m919 -50 c24 -23 46 -50
49 -60 8 -28 27 -22 85 26 66 54 129 76 215 76 93 0 130 -18 156 -77 19 -43
22 -74 29 -288 4 -137 12 -254 19 -272 6 -17 23 -39 37 -48 46 -31 14 -40
-137 -40 -97 0 -143 4 -151 12 -10 10 -6 15 19 24 50 17 56 53 54 293 -1 118
-6 224 -13 243 -29 88 -214 49 -266 -56 -16 -31 -18 -64 -18 -239 0 -223 -3
-209 61 -248 11 -7 16 -15 13 -18 -24 -25 -329 -16 -329 10 0 8 9 14 20 14 11
0 28 12 37 27 16 24 18 54 18 265 l0 238 -28 27 c-39 40 -117 38 -178 -3 -88
-60 -98 -94 -99 -324 0 -180 6 -206 54 -229 16 -7 24 -17 19 -22 -13 -13 -171
-23 -246 -15 -69 8 -84 20 -43 36 14 5 26 20 30 37 4 15 10 144 13 287 l6 259
-39 33 c-28 23 -36 36 -28 43 6 6 53 14 105 18 l95 6 13 -57 c7 -31 16 -56 20
-56 5 0 26 14 47 31 86 68 180 101 268 94 42 -4 56 -11 93 -47z m-2986 5 c25
-11 52 -27 60 -35 8 -7 29 -24 48 -37 21 -16 45 -48 65 -90 29 -62 31 -73 30
-176 0 -90 -4 -118 -21 -156 -57 -125 -168 -176 -425 -194 l-98 -7 0 -80 c0
-92 19 -145 56 -154 48 -12 26 -32 -42 -40 -72 -7 -231 0 -242 11 -4 4 6 17
21 29 17 14 32 39 37 62 5 21 10 207 10 412 0 397 -1 402 -49 446 -16 15 -18
22 -9 28 7 5 126 7 263 5 229 -2 254 -4 296 -24z m3886 15 c4 -7 10 -148 13
-313 6 -320 9 -339 56 -351 40 -10 22 -28 -37 -37 -68 -11 -237 -3 -251 11 -7
7 -1 14 18 24 19 8 31 24 35 43 4 17 7 142 8 279 l1 250 -32 27 c-18 15 -30
30 -26 34 12 12 130 43 170 44 20 1 40 -5 45 -11z m893 3 l24 -7 -24 -17 -25
-17 -3 -276 -3 -275 34 -39 c18 -22 42 -64 52 -93 17 -52 17 -56 0 -111 -15
-47 -26 -62 -62 -87 -78 -54 -173 -81 -307 -86 -76 -4 -139 -1 -175 7 -54 12
-185 73 -244 113 l-29 20 78 78 c43 44 84 79 91 79 9 0 13 -16 13 -49 0 -57
28 -105 80 -135 30 -18 52 -21 155 -21 135 0 171 12 212 75 28 41 29 70 2 104
-17 22 -28 26 -72 26 -83 0 -216 19 -289 40 -61 19 -72 26 -146 105 -93 99
-107 135 -106 263 1 71 5 91 30 139 24 46 43 65 106 109 51 35 90 54 115 57
66 7 467 5 493 -2z m-3266 -1093 c3 -13 6 -93 6 -179 0 -130 3 -158 15 -163
39 -15 -6 -43 -51 -32 -13 4 -24 13 -24 21 0 12 -8 11 -40 -6 -48 -25 -93 -20
-122 14 -86 97 -17 226 127 239 25 3 31 8 33 32 3 22 -3 35 -20 48 -23 18 -23
19 -4 33 31 23 73 19 80 -7z m-2758 -118 c20 -47 45 -99 55 -116 10 -17 19
-38 19 -47 0 -8 12 -30 27 -47 30 -36 21 -50 -33 -50 -74 0 -123 24 -74 37 23
6 25 24 9 56 -17 32 -28 37 -86 37 -60 0 -93 -23 -93 -64 0 -15 7 -26 20 -29
34 -9 22 -25 -24 -32 -41 -6 -106 1 -106 11 0 3 15 19 33 37 35 36 76 114 112
213 13 35 33 77 45 95 l23 31 18 -23 c10 -13 35 -62 55 -109z m3731 105 c41
-24 49 -57 26 -103 -26 -53 -77 -84 -130 -80 l-43 3 0 -71 c0 -55 4 -73 15
-78 50 -19 -25 -43 -100 -32 -46 7 -58 22 -27 33 9 4 20 11 24 17 4 6 8 72 8
147 0 109 -3 139 -15 149 -24 20 -18 28 23 33 80 10 187 1 219 -18z m1057 0
c2 -7 -1 -21 -9 -31 -11 -15 -15 -16 -29 -5 -19 16 -20 33 -5 48 13 13 35 7
43 -12z m-3559 -9 c0 -30 -31 -44 -51 -24 -15 14 -15 20 -4 33 18 21 55 15 55
-9z m780 5 c17 -28 -83 -60 -145 -46 -49 11 -37 35 18 36 26 1 61 5 77 9 43
11 43 11 50 1z m2605 -33 c0 -43 12 -66 36 -72 33 -9 33 -46 0 -46 -20 0 -24
-6 -29 -40 -3 -22 -3 -58 0 -80 5 -34 9 -40 30 -40 31 0 26 -21 -10 -38 -58
-28 -87 7 -87 108 0 67 -7 90 -26 90 -22 0 -17 27 6 33 16 4 20 14 20 50 0 45
7 55 43 56 11 1 17 -6 17 -21z m328 -25 c3 -39 6 -43 35 -48 18 -4 52 -2 77 4
25 6 48 11 53 11 4 0 7 -37 8 -82 1 -116 7 -132 48 -136 54 -5 71 19 71 98 0
59 -2 68 -20 73 -33 8 -23 25 21 37 55 15 59 8 59 -112 0 -87 2 -98 20 -108
27 -14 25 -28 -5 -36 -35 -9 -75 3 -75 23 0 15 -1 15 -18 0 -30 -27 -75 -39
-105 -28 -40 15 -57 59 -57 146 l0 75 -42 -6 c-68 -9 -68 -10 -68 -61 0 -69 9
-92 36 -99 30 -8 30 -19 0 -39 -29 -19 -72 -11 -86 16 -6 10 -13 52 -17 94 -5
63 -10 78 -25 84 -19 7 -19 7 1 25 13 12 21 31 21 52 0 36 24 67 49 62 11 -2
17 -16 19 -45z m502 4 c0 -40 2 -44 33 -52 41 -13 42 -38 2 -45 l-30 -5 0 -75
c0 -75 0 -75 28 -78 34 -4 31 -22 -7 -41 -39 -18 -71 -2 -80 39 -3 18 -6 59
-6 92 0 51 -3 61 -20 65 -20 5 -20 5 0 30 11 14 20 40 20 57 0 36 15 56 42 56
15 0 18 -8 18 -43z m-5123 -63 c16 -22 13 -56 -4 -62 -7 -2 -17 7 -22 21 -12
30 -34 39 -66 27 -45 -17 -26 -41 59 -75 48 -19 51 -23 54 -58 4 -51 -36 -93
-100 -102 -65 -10 -88 5 -88 55 0 48 18 52 42 10 30 -53 111 -36 93 19 -3 9
-33 30 -68 46 -58 28 -62 32 -65 67 -3 33 1 40 30 58 41 26 114 22 135 -6z
m234 5 c12 -18 7 -61 -7 -66 -6 -2 -16 8 -22 22 -9 19 -19 25 -42 25 -35 0
-50 -24 -28 -46 8 -8 36 -23 64 -33 48 -19 49 -20 49 -62 0 -38 -4 -46 -32
-65 -77 -51 -153 -36 -153 31 0 44 21 46 37 5 12 -32 45 -40 84 -20 40 22 8
64 -70 90 -30 10 -43 20 -48 38 -8 35 8 74 37 90 31 16 119 10 131 -9z m256 1
c85 -52 87 -153 3 -223 -63 -53 -138 -40 -187 33 -78 115 65 263 184 190z
m274 10 c14 -8 19 -21 19 -50 0 -42 -14 -54 -23 -20 -8 31 -49 45 -83 29 -26
-13 -29 -20 -32 -72 -3 -50 0 -60 22 -82 19 -19 35 -25 71 -25 58 0 62 -24 6
-41 -51 -15 -87 -5 -128 36 -31 31 -33 38 -33 97 0 54 4 68 23 86 46 43 119
63 158 42z m149 -102 c4 -92 8 -109 25 -122 29 -21 11 -31 -55 -31 -67 0 -80
7 -57 33 34 37 34 182 1 182 -28 0 -10 35 21 41 59 13 60 13 65 -103z m237 97
c24 -17 43 -89 43 -165 0 -28 5 -50 12 -52 6 -2 9 -12 5 -21 -8 -22 -52 -22
-74 1 -17 16 -20 16 -56 -2 -70 -34 -109 2 -93 89 6 30 11 34 67 51 67 20 82
37 53 59 -25 19 -58 19 -74 0 -17 -21 -42 -19 -38 3 4 22 64 52 103 52 17 0
40 -7 52 -15z m284 5 c10 -6 19 -21 19 -33 0 -26 -29 -72 -30 -48 0 8 -7 23
-17 33 -38 42 -103 2 -103 -64 0 -22 5 -48 10 -59 14 -26 66 -51 97 -47 38 4
39 -18 3 -37 -32 -16 -32 -17 -11 -31 12 -8 21 -23 21 -32 -1 -46 -64 -76 -95
-45 -18 17 -18 18 13 21 34 3 42 16 17 26 -8 3 -15 17 -15 30 0 19 -7 27 -25
32 -39 10 -78 67 -79 117 -1 53 29 97 86 126 47 23 79 26 109 11z m219 -8 c24
-19 39 -78 40 -153 0 -37 5 -50 23 -62 27 -18 21 -26 -26 -34 -27 -4 -39 -1
-56 16 -11 11 -21 17 -21 11 0 -5 -18 -15 -40 -21 -33 -10 -43 -9 -64 4 -31
21 -39 47 -27 81 11 27 64 66 92 66 26 0 51 24 43 43 -11 29 -52 33 -79 7 -22
-20 -25 -21 -31 -6 -19 50 96 88 146 48z m295 4 c73 -31 93 -114 45 -191 -24
-38 -84 -75 -124 -75 -32 0 -85 45 -102 87 -18 41 -17 101 0 132 29 53 114 75
181 47z m732 -1 c22 -15 43 -87 43 -148 0 -18 7 -45 15 -61 13 -24 13 -31 3
-38 -27 -17 -78 -5 -78 18 0 8 -4 14 -10 14 -5 0 -10 -4 -10 -9 0 -5 -15 -14
-34 -21 -56 -18 -106 14 -106 68 0 27 37 57 98 78 55 20 58 24 42 55 -14 25
-45 24 -78 -1 -18 -15 -27 -17 -33 -9 -28 46 95 91 148 54z m254 5 c13 -8 19
-21 19 -48 l0 -37 -25 28 c-34 35 -88 39 -83 5 3 -22 17 -32 93 -65 70 -31 59
-99 -22 -135 -48 -21 -102 -20 -129 3 -25 21 -12 101 15 85 6 -4 11 -16 11
-26 0 -36 75 -55 100 -25 22 27 6 48 -57 74 -69 29 -89 55 -73 96 16 43 105
69 151 45z m619 -10 c0 -20 0 -20 29 1 39 29 65 22 69 -18 3 -31 2 -32 -40
-35 -40 -3 -43 -5 -51 -43 -12 -59 -1 -104 29 -115 13 -5 24 -14 24 -19 0 -18
-113 -28 -139 -12 -11 7 -11 13 3 32 22 32 22 146 0 178 -18 25 -11 37 26 44
46 8 50 7 50 -13z m351 -17 c50 -50 51 -125 3 -183 -58 -68 -125 -75 -189 -18
-33 29 -35 33 -35 97 0 61 3 70 28 93 44 41 64 49 115 45 38 -3 56 -11 78 -34z
m240 16 c12 -18 7 -61 -6 -66 -5 -1 -18 11 -27 27 -19 33 -48 39 -69 14 -20
-24 -1 -44 63 -67 62 -22 71 -38 56 -94 -11 -41 -56 -66 -121 -67 -52 -1 -67
11 -67 56 0 29 21 50 28 29 16 -48 83 -65 106 -28 16 26 -2 47 -62 69 -118 44
-82 156 47 144 24 -2 47 -10 52 -17z m329 -84 c3 -65 10 -108 20 -123 13 -20
13 -24 0 -32 -20 -13 -72 -12 -107 1 -27 11 -28 11 -6 21 42 20 43 181 0 192
-43 11 18 46 73 42 12 -1 16 -22 20 -101z m909 88 c18 -15 22 -33 28 -111 5
-76 9 -95 25 -103 24 -13 23 -26 -3 -34 -29 -9 -69 2 -69 20 0 20 -9 19 -32
-2 -43 -39 -128 -8 -128 46 0 43 25 67 90 87 64 19 70 27 43 56 -22 25 -57 23
-76 -4 -11 -18 -18 -20 -27 -12 -16 16 3 52 33 64 37 15 93 11 116 -7z m255 1
c9 -8 16 -29 16 -47 l0 -31 -28 27 c-37 36 -95 39 -90 5 2 -17 19 -29 68 -49
48 -20 67 -34 74 -53 14 -38 -6 -70 -59 -96 -71 -34 -145 -16 -145 35 0 29 10
55 21 55 4 0 16 -16 25 -35 13 -27 22 -35 43 -35 31 0 51 16 51 42 0 12 -21
27 -64 48 -69 32 -83 51 -67 93 19 50 120 77 155 41z m-5962 -669 c3 -157 5
-176 22 -188 25 -18 13 -37 -24 -37 -39 0 -60 9 -60 27 0 11 -5 11 -27 -5 -44
-30 -62 -33 -98 -18 -68 29 -95 118 -55 183 27 44 65 67 124 73 50 5 51 5 54
42 2 27 -2 41 -19 57 -23 21 -21 24 26 34 56 13 53 21 57 -168z m542 153 c18
-8 42 -43 80 -117 84 -164 72 -162 141 -22 65 134 87 157 141 146 33 -6 48
-25 20 -25 -30 0 -30 -302 1 -327 8 -6 12 -16 8 -22 -8 -14 -111 -14 -137 0
-19 10 -19 12 11 30 l31 19 0 112 c0 111 0 113 -18 86 -9 -15 -42 -79 -72
-142 -30 -63 -58 -115 -61 -115 -3 -1 -36 55 -73 124 -37 69 -70 125 -73 125
-3 0 -4 -45 -1 -100 4 -84 8 -103 24 -115 16 -13 17 -16 4 -25 -19 -13 -81
-13 -100 0 -13 9 -13 12 3 21 15 9 17 28 17 169 0 136 -2 160 -15 160 -18 0
-20 16 -2 23 21 9 45 7 71 -5z m1851 0 c21 -9 25 -18 25 -55 0 -32 -4 -43 -15
-43 -8 0 -15 9 -15 20 0 40 -35 60 -105 60 -60 0 -68 -3 -103 -34 l-37 -34 0
-84 c0 -64 4 -90 18 -111 28 -44 75 -67 133 -67 56 0 64 7 64 61 0 22 -6 32
-26 39 -41 16 -17 30 52 30 50 0 64 -3 64 -15 0 -8 -4 -15 -9 -15 -5 0 -13
-24 -16 -54 -7 -52 -9 -55 -46 -70 -45 -18 -127 -21 -178 -6 -75 21 -131 105
-131 195 0 132 70 191 232 194 37 0 79 -4 93 -11z m910 -28 c0 -18 -6 -26 -23
-28 -13 -2 -25 3 -28 12 -10 26 4 48 28 44 17 -2 23 -10 23 -28z m-2242 14
c11 -12 -13 -44 -33 -44 -20 0 -44 32 -33 44 3 3 18 6 33 6 15 0 30 -3 33 -6z
m-824 -108 c38 -20 48 -34 56 -83 l7 -43 -86 0 c-46 0 -87 -4 -90 -8 -3 -5 3
-24 12 -43 17 -33 19 -34 85 -37 37 -2 67 -7 67 -12 0 -22 -64 -42 -117 -38
-77 7 -96 29 -101 115 -3 82 9 109 63 140 47 27 66 28 104 9z m831 -100 c0
-96 3 -115 16 -120 27 -10 53 3 60 31 10 39 -3 133 -22 154 -16 18 -15 19 10
29 40 15 76 13 76 -5 0 -12 6 -11 33 5 41 25 68 25 99 0 29 -22 48 -85 48
-154 0 -35 5 -48 23 -61 19 -13 20 -17 7 -25 -8 -6 -33 -9 -55 -8 l-40 3 -3
98 c-3 92 -4 98 -27 109 -35 16 -72 -11 -81 -57 -9 -49 1 -104 23 -121 31 -24
-2 -32 -132 -32 -135 0 -164 8 -127 33 19 14 22 25 22 84 0 44 -5 74 -15 87
-23 30 -18 41 23 52 65 17 62 22 62 -102z m544 89 c26 -28 36 -65 36 -135 0
-32 6 -55 20 -72 10 -14 16 -28 13 -32 -10 -10 -54 -7 -89 6 -28 10 -36 9 -52
-5 -25 -22 -44 -21 -76 4 -58 46 -15 145 67 151 34 2 42 7 42 23 0 12 -10 23
-27 29 -23 8 -32 6 -51 -12 -19 -18 -26 -20 -35 -9 -14 16 -5 30 38 56 47 28
85 27 114 -4z m250 15 c28 -10 45 -55 27 -73 -8 -8 -18 -4 -39 16 -32 31 -76
36 -87 10 -8 -22 28 -53 62 -53 13 0 37 -7 53 -15 24 -12 30 -22 30 -48 0 -63
-55 -107 -134 -107 -43 0 -46 2 -54 33 -9 35 -4 73 8 60 5 -4 10 -17 12 -28 6
-36 90 -38 112 -1 13 20 1 29 -74 59 -51 21 -60 31 -60 70 0 71 67 107 144 77z
m808 -30 c30 -30 39 -45 36 -67 -3 -27 -5 -28 -80 -33 -42 -3 -80 -8 -84 -13
-4 -4 0 -23 9 -42 16 -34 18 -35 76 -35 71 0 86 -15 37 -35 -66 -28 -136 -12
-170 37 -23 32 -21 115 4 156 23 38 75 72 109 72 14 0 39 -16 63 -40z m256 1
c4 -39 -12 -61 -30 -43 -38 38 -73 -10 -65 -92 4 -43 13 -59 41 -69 5 -2 6 -9
2 -15 -9 -15 -105 -16 -126 -2 -13 9 -13 12 3 24 24 18 25 167 1 187 -14 12
-14 14 2 26 25 18 74 17 74 -2 0 -12 6 -11 33 5 43 27 61 22 65 -19z m195 19
c27 -22 41 -70 51 -187 l6 -63 -30 0 c-18 0 -34 7 -42 19 -11 19 -12 19 -39
-1 -34 -25 -78 -26 -96 -2 -20 27 -17 98 5 117 10 10 40 21 66 26 60 11 66 18
37 42 -30 24 -56 24 -81 -1 -27 -27 -32 -25 -28 8 2 19 13 32 38 44 46 23 81
23 113 -2z m189 -90 c3 -95 6 -111 23 -124 17 -14 18 -17 5 -26 -19 -12 -100
-13 -120 0 -12 8 -11 12 8 30 18 17 22 31 22 85 0 72 -6 95 -26 95 -11 0 -22
20 -11 20 1 0 20 7 42 15 22 8 43 14 46 15 4 0 8 -49 11 -110z m235 84 c7 -10
13 -31 13 -48 l0 -30 -29 32 c-35 38 -75 43 -92 10 -10 -18 -8 -24 7 -35 10
-7 29 -13 43 -13 34 0 87 -33 93 -58 15 -54 -57 -112 -137 -112 -59 0 -65 7
-65 68 l1 37 27 -33 c22 -26 34 -32 65 -32 26 0 40 5 44 16 10 26 -9 45 -65
66 -29 11 -57 29 -63 40 -17 32 -2 86 29 103 35 20 111 14 129 -11z"/>
<path d="M4234 6884 c-87 -59 -144 -113 -144 -136 0 -27 33 -87 75 -135 40
-47 47 -50 69 -28 8 8 35 24 59 34 61 26 137 135 137 197 0 33 -75 114 -105
114 -13 0 -54 -21 -91 -46z"/>
<path d="M5107 6809 c-22 -66 -60 -161 -85 -212 -42 -84 -46 -98 -46 -168 -1
-87 16 -119 64 -119 25 0 28 5 48 88 41 166 84 513 66 525 -5 3 -26 -49 -47
-114z"/>
<path d="M5770 6198 c-18 -51 -39 -112 -47 -135 -17 -49 -12 -73 16 -73 18 0
112 -28 153 -45 16 -6 17 -3 12 26 -5 30 -92 309 -99 317 -2 2 -17 -39 -35
-90z"/>
<path d="M7997 6130 c-92 -29 -140 -118 -141 -260 -1 -105 15 -163 63 -226 39
-52 70 -72 126 -81 83 -13 147 23 192 111 22 41 28 69 31 142 7 146 -37 261
-115 298 -44 21 -118 29 -156 16z"/>
<path d="M6526 6098 c-9 -36 -7 -389 4 -433 14 -60 49 -85 119 -85 190 0 304
200 221 388 -40 89 -93 128 -187 137 -32 3 -79 8 -104 11 -42 4 -47 2 -53 -18z"/>
<path d="M11215 6109 c-32 -11 -69 -29 -81 -40 -65 -61 -90 -227 -47 -320 45
-100 142 -160 270 -169 l83 -5 0 205 c0 275 -4 307 -44 331 -40 24 -103 24
-181 -2z"/>
<path d="M8199 4929 c-18 -18 -21 -30 -17 -71 7 -66 33 -93 82 -84 31 6 37 12
47 48 13 51 4 105 -21 118 -30 16 -68 12 -91 -11z"/>
<path d="M5527 5003 c-12 -11 -47 -94 -47 -109 0 -10 15 -14 54 -14 l55 0 -23
53 c-13 28 -25 58 -27 65 -3 7 -8 10 -12 5z"/>
<path d="M9200 4995 c0 -55 3 -73 13 -71 6 3 24 7 39 10 37 8 58 32 58 67 0
53 -15 69 -65 69 l-45 0 0 -75z"/>
<path d="M6304 4918 c-18 -35 -15 -87 8 -134 11 -24 20 -29 48 -29 46 0 62 30
57 107 -4 68 -18 88 -63 88 -27 0 -36 -6 -50 -32z"/>
<path d="M7000 4847 c-31 -16 -36 -70 -7 -75 31 -6 67 25 67 58 0 34 -18 39
-60 17z"/>
<path d="M7502 4844 c-37 -25 -25 -74 18 -74 18 0 40 33 40 61 0 34 -22 39
-58 13z"/>
<path d="M7773 4943 c-20 -7 -17 -143 3 -171 19 -27 64 -29 86 -4 34 37 34
134 2 167 -15 14 -65 19 -91 8z"/>
<path d="M8532 4844 c-12 -8 -22 -26 -22 -38 0 -46 61 -42 80 4 20 48 -12 67
-58 34z"/>
<path d="M9691 4924 c-12 -15 -21 -38 -21 -52 0 -39 37 -108 66 -121 23 -10
29 -8 55 18 24 25 29 38 29 79 0 65 -27 102 -75 102 -24 0 -39 -7 -54 -26z"/>
<path d="M11225 4835 c-29 -28 -31 -38 -10 -55 19 -15 52 -4 70 24 34 51 -16
76 -60 31z"/>
<path d="M5431 4274 c-27 -35 -27 -73 2 -115 27 -40 53 -46 86 -20 20 15 23
26 22 71 -1 62 -21 90 -62 90 -18 0 -35 -9 -48 -26z"/>
<path d="M5755 4284 c-14 -15 -25 -31 -25 -35 0 -5 27 -9 60 -9 65 0 72 8 44
48 -20 29 -50 28 -79 -4z"/>
<path d="M7131 4187 c-35 -57 -6 -90 37 -44 30 32 33 71 6 75 -16 2 -28 -7
-43 -31z"/>
<path d="M8184 4302 c-11 -7 -34 -45 -34 -56 0 -3 25 -6 55 -6 60 0 67 9 39
48 -15 22 -40 28 -60 14z"/>
<path d="M8652 4203 c-28 -14 -33 -21 -30 -47 4 -40 30 -45 63 -12 26 26 34
76 13 76 -7 0 -28 -8 -46 -17z"/>
</g>
</svg>
