<?xml version="1.0" encoding="UTF-8"?>
<svg width="400" height="148.41" version="1.1" viewBox="0 0 400 148.41" xmlns="http://www.w3.org/2000/svg" xmlns:cc="http://creativecommons.org/ns#" xmlns:dc="http://purl.org/dc/elements/1.1/" xmlns:rdf="http://www.w3.org/1999/02/22-rdf-syntax-ns#">
 <metadata>
  <rdf:RDF>
   <cc:Work rdf:about="">
    <dc:format>image/svg+xml</dc:format>
    <dc:type rdf:resource="http://purl.org/dc/dcmitype/StillImage"/>
    <dc:title/>
   </cc:Work>
  </rdf:RDF>
 </metadata>
 <g transform="translate(-.0036718 -.70438)">
  <path d="m160.92 148.28c-3e-3 -0.4597 0.63164-1.3729 1.4088-2.0294l1.4133-1.1938-0.65814-5.7302c-0.81764-7.1203-1.9448-10.744-5.0503-16.236-1.3367-2.3637-3.2607-6.0169-4.2756-8.1179-1.015-2.1012-2.6865-5.1096-3.7147-6.6853-2.6187-4.0142-3.3282-9.1841-2.5581-18.64 0.30036-3.6857 0.52234-7.3388 0.49364-8.1179-0.10045-2.7019-1.3298 7.2104-1.661 13.387-0.18322 3.4143-0.54909 6.745-0.81297 7.4017-0.26403 0.6565-0.74756 4.5246-1.0746 8.5954-0.32706 4.0708-1.1713 10.088-1.8759 13.371-1.3076 6.0909-1.3366 7.3367-0.33012 14.122 0.23658 1.595 0.70651 3.4164 1.0444 4.0477 1.1145 2.0825 1.3606 4.1462 0.62028 5.203-0.56862 0.8118-1.1974 0.97983-3.6447 0.97374-3.9482-0.0101-4.5388-0.4063-3.7703-2.5314 0.32524-0.89965 0.48698-1.9321 0.35944-2.2942-0.18492-0.52433-0.95724-13.67-1.9169-32.622-0.0527-1.0339 0.20982-3.72 0.5828-5.969 0.89578-5.4026 0.54353-12.804-1.113-23.395-1.2634-8.0763-1.2791-8.418-0.53245-11.529 0.42328-1.7634 1.53-4.7688 2.4595-6.6786 0.92928-1.9098 1.6897-3.6463 1.6897-3.859 0-0.21268-0.59089-0.26916-1.3132-0.12556-2.0168 0.40105-7.0941-3.7021-9.7361-7.8682-2.6285-4.1446-2.522-4.3496 7.2637-13.991l8.6299-8.503 3.4277-0.97863c4.8624-1.3883 5.7884-1.9315 5.9702-3.5023 0.2032-1.7549-1.097-3.1556-2.9748-3.2045-2.2204-0.05783-5.3367-1.9306-5.1318-3.0839 0.64933-3.6553 0.61227-5.0902-0.15336-5.9362-0.75351-0.83266-0.75129-1.0619 0.0355-3.6745 0.61887-2.0553 1.4591-3.4331 3.2024-5.2511 2.2856-2.3835 2.4721-2.4756 5.6653-2.7963 2.7896-0.28014 3.7497-0.1642 6.1862 0.747 1.9645 0.73468 3.0142 1.4212 3.2925 2.153 0.2248 0.59092 0.63097 1.2118 0.9028 1.3798 1.3974 0.86364 1.9441 3.44 1.8296 8.6215l-0.11613 5.2528-1.7907 0.44237c-0.98501 0.24329-1.7908 0.7141-1.7908 1.0462 0 1.2503 1.0223 1.1519 2.7398-0.26379 1.8618-1.5347 4.1244-1.9126 5.867-0.97992 1.6417 0.87861 4.2332 6.333 5.6893 11.975 2.2262 8.6254 3.0923 14.077 2.4797 15.61-0.28572 0.7146-1.1582 3.8238-1.9389 6.9094-1.5296 6.0453-4.4816 12.909-6.2092 14.438-0.72392 0.64059-1.8405 0.97301-3.4483 1.0266-1.3077 0.04354-2.5173 0.2188-2.688 0.3894-0.17064 0.1706-0.45787 3.0394-0.63859 6.375-0.23525 4.3447-0.62059 6.8774-1.3589 8.93-1.8229 5.0684-3.834 13.769-3.8353 16.593-9.6e-4 2.5122 0.18469 2.997 2.1979 5.7303 3.6782 4.9941 3.6742 4.9825 6.6782 18.976 1.0317 4.8066 1.3787 5.6928 2.8032 7.1629 2.0464 2.1118 2.4779 3.7514 1.4902 5.6616-0.4311 0.83363-0.75511 2.636-0.75511 4.2002 0 2.0553-0.26851 3.1341-1.0744 4.3182-1.0601 1.5572-1.1238 1.5782-4.7752 1.5814-3.2059 3e-3 -3.7014-0.10834-3.7051-0.83235zm7.261-86.791c1.1977-3.9593 2.8368-16.875 2.3653-18.637-0.34778-1.3005-0.4372-1.1619-1.1938 1.8503-0.4499 1.7909-1.8856 5.3837-3.1905 7.984-1.9354 3.8568-2.3725 5.1858-2.3725 7.2128 0 1.905 0.24586 2.7466 1.0533 3.6062 1.5707 1.6719 2.3684 1.1902 3.3382-2.0159zm-27.217-8.3555c0.87974 0 3.5078-4.0373 3.9379-6.0497 0.28069-1.3131 0.0868-1.7606-1.4703-3.3842l-1.7938-1.871-3.1384 1.8094c-1.7261 0.99518-3.7202 2.4167-4.4312 3.1589-1.201 1.2535-1.2538 1.4768-0.74337 3.1403 0.3024 0.98494 1.2809 2.5438 2.1748 3.4641l1.625 1.6733 1.5704-0.9705c0.86372-0.53378 1.8848-0.97051 2.2691-0.97051zm38.584 88.676c-1.7421-0.8762-2.6124-2.9766-2.0941-5.054 0.5641-2.2607 3.1365-4.0534 5.3173-3.7053 1.5301 0.24409 1.552 0.22099 1.552-1.6326 0-1.3528-0.20087-1.8801-0.71634-1.8801-0.39398 0-0.71633-0.21479-0.71633-0.47758 0-0.26255 0.2687-0.48046 0.59693-0.48397 0.32828-3e-3 1.0804-0.13604 1.6714-0.29439l1.0744-0.28797v6.5023c0 5.4614 0.11457 6.5022 0.71626 6.5022 0.39395 0 0.71629 0.21492 0.71629 0.47751 0 0.26262-0.75208 0.47751-1.6713 0.47751-1.2368 0-1.6714-0.20546-1.6714-0.79024 0-0.71384-0.0815-0.71933-0.83574-0.0569-1.2803 1.1243-2.6249 1.3642-3.9395 0.7031zm3.7383-1.5717c0.90885-0.63651 1.0623-1.1209 0.94194-2.9732-0.11565-1.7796-0.36735-2.3237-1.2864-2.7796-2.9893-1.4832-5.1223 2.4065-2.8816 5.2549 1.1463 1.4574 1.7281 1.5472 3.2261 0.49783zm7.3954 1.7121c-0.57378-0.23111-1.2723-0.84812-1.5521-1.3709-0.6472-1.2094-0.65658-4.1423-0.0173-5.3375 0.57094-1.0668 2.8708-2.3612 4.1954-2.3612 1.5714 0 3.4307 1.8304 3.4307 3.3772v1.398h-3.136c-3.0316 0-3.125 0.0357-2.8067 1.0744 0.60862 1.9854 1.2449 2.3836 3.4169 2.1388 2.2641-0.25509 2.7336 0.37001 0.82348 1.0963-1.4703 0.55896-2.9427 0.55382-4.3548-0.0154zm4.1471-5.7583c0-1.0795-1.0294-2.3562-1.8999-2.3562-0.83809 0-2.3979 1.6222-2.3979 2.4939 0 0.20417 0.96702 0.37113 2.1489 0.37113 1.2026 0 2.1488-0.22403 2.1488-0.50886zm13.02 1.3252-2.4587-4.8752-0.0282 4.1782c-0.023 3.4081 0.10413 4.1784 0.68835 4.1784 0.39403 0 0.71634 0.21492 0.71634 0.47751 0 0.26261-0.96694 0.47749-2.1489 0.47749-1.1818 0-2.1488-0.21488-2.1488-0.47749 0-0.26259 0.32232-0.47751 0.71628-0.47751 0.59688 0 0.71626-0.95502 0.71626-5.7303 0-5.4666-0.0455-5.7303-0.98315-5.7303-0.54087 0-0.85047-0.21479-0.68817-0.47758 0.16234-0.26255 1.0326-0.47751 1.9341-0.47751 1.6052 0 1.6916 0.10527 4.2067 5.1187l2.5678 5.1187 2.4628-5.1187c2.4184-5.0265 2.492-5.1187 4.0935-5.1187 0.89701 0 1.7636 0.21495 1.9259 0.47751 0.16234 0.26278-0.14723 0.47758-0.68813 0.47758-0.93791 0-0.98314 0.26368-0.98314 5.7303 0 4.6709 0.12714 5.7303 0.68812 5.7303 0.37834 0 0.82082 0.21492 0.98315 0.47751 0.18442 0.29831-0.79085 0.47749-2.5982 0.47749-2.8162 0-3.8624-0.59014-1.9382-1.0934 0.8683-0.22708 0.95508-0.65126 0.95508-4.6718 0-2.4321-0.12313-4.2988-0.27359-4.1484-0.15056 0.15041-1.3167 2.4626-2.5917 5.1383-1.2749 2.6757-2.3965 4.9434-2.4925 5.0394-0.0966 0.0965-1.281-2.0193-2.6334-4.7006zm30.077 4.3313c-2.3661-1.1412-0.80442-5.1336 2.0163-5.1548 1.436-0.0121 2.2346-0.68026 1.8883-1.5829-0.389-1.0137-2.9911-1.0785-3.3728-0.0845-0.15055 0.39247-0.46611 0.59462-0.70119 0.4494-0.78259-0.48364-0.44242-1.1307 0.98127-1.8668 3.3831-1.7495 5.2765-0.27331 5.2765 4.1134 0 2.2322 0.19938 3.0833 0.8357 3.5663 0.74362 0.56454 0.64284 0.63603-0.91531 0.64949-0.96299 9e-3 -1.836-0.24009-1.94-0.55214-0.13422-0.40232-0.52376-0.33275-1.3399 0.23876-1.3135 0.92003-1.2884 0.91795-2.7289 0.22333zm3.117-1.5931c1.1409-0.7991 1.475-3.0769 0.45122-3.0769-1.7269 0-3.4365 2.4796-2.4142 3.5019 0.46808 0.46807 0.78608 0.39927 1.963-0.425zm5.956 1.8596c-0.70595-0.28486-0.81408-3.0263-0.1194-3.0263 0.26256 0 0.4775 0.42561 0.4775 0.94587 0 1.8791 3.828 1.7936 4.2003-0.0943 0.0961-0.48406-0.67937-1.0108-2.3876-1.6229-2.2563-0.80858-2.5448-1.0683-2.6752-2.4095-0.17045-1.753 1.2261-3.0275 3.3173-3.0275 2.012 0 2.798 0.48384 2.798 1.7224 0 1.4034-0.52395 1.4651-1.3403 0.15812-0.8201-1.3133-3.1962-1.1224-3.1962 0.25673 0 0.63493 0.46863 1.0837 1.4325 1.372 3.2812 0.98134 3.5815 1.2037 3.5815 2.6537 0 2.42-3.423 4.1468-6.0884 3.0712zm15.854-0.35541c-2.537-1.105-4.0353-3.3602-4.0353-6.074 0-1.3062 0.32675-3.0066 0.72611-3.779 0.99582-1.9258 4.1683-3.46 7.1542-3.46 3.7532 0 4.5353 0.39964 4.5353 2.3175 0 0.90145-0.21489 1.6392-0.47751 1.6392s-0.47752-0.42233-0.47752-0.93833c0-1.2658-1.3943-1.9269-4.0643-1.9269-1.8136 0-2.471 0.25397-3.6128 1.3959-1.3435 1.3434-1.6412 2.4692-1.399 5.2894 0.2831 3.297 3.3146 5.6338 6.5269 5.0311 1.4418-0.27058 1.5942-0.45671 1.5942-1.9488 0-1.3312-0.18437-1.6496-0.95507-1.6496-0.52524 0-0.95506-0.2149-0.95506-0.4776 0-0.26262 1.0744-0.47757 2.3877-0.47757 1.3131 0 2.3876 0.21495 2.3876 0.47757 0 0.2627-0.21484 0.4776-0.47752 0.4776-0.26261 0-0.47752 0.84935-0.47752 1.8875 0 1.7746-0.10729 1.9174-1.7907 2.3851-2.3947 0.66495-4.8175 0.6029-6.5897-0.16908zm12.439 0.0956c-1.5591-0.89413-2.1182-1.937-2.1231-3.9597-7e-3 -2.7554 2.1286-5.014 4.7397-5.014 1.388 0 3.3524 2.0858 3.3524 3.5597 0 1.1776-0.0973 1.2155-3.1039 1.2155-3.3667 0-3.7138 0.34927-2.3222 2.336 0.67061 0.95748 1.0777 1.0827 2.8651 0.88119 2.2935-0.25845 2.7808 0.36145 0.85859 1.0923-1.5977 0.60746-3.0811 0.5688-4.2666-0.11113zm4.0589-5.6625c0-1.0795-1.0294-2.3562-1.8998-2.3562-0.83807 0-2.3979 1.6222-2.3979 2.4939 0 0.20417 0.96694 0.37115 2.1489 0.37115 1.2026 0 2.1488-0.22403 2.1488-0.50885zm11.938 5.8586c-1.0064-0.33733-1.4168-1.0834-1.4253-2.5916-5e-3 -0.96151 0.36024-1.4909 1.4015-2.0295 0.77495-0.40069 1.6882-0.73184 2.0296-0.73579 0.34129-3e-3 0.92905-0.20248 1.3062-0.4411 0.56816-0.35954 0.57857-0.56272 0.0613-1.1866-0.81382-0.98056-2.7284-0.96613-3.2831 0.0251-0.34025 0.60789-0.51823 0.64317-0.81593 0.1614-0.53813-0.8707 1.4662-2.3716 3.1667-2.3716 2.3411 0 3.2897 1.4458 3.2897 5.014 0 1.7509 0.20813 3.1039 0.47754 3.1039 0.26264 0 0.47754 0.21492 0.47754 0.47751 0 0.2626-0.64467 0.4775-1.4326 0.4775-1.0146 0-1.4326-0.23047-1.4326-0.79024 0-0.70771-0.0879-0.71529-0.83566-0.0731-1.0875 0.93386-2.0947 1.2578-2.9845 0.9597zm2.7589-1.7952c0.6043-0.42333 1.0612-1.2458 1.0612-1.9102 0-1.3533 0.10066-1.3184-1.8388-0.64253-1.082 0.37727-1.5038 0.82385-1.5038 1.5919 0 1.8275 0.65196 2.102 2.2814 0.96086zm11.209 1.8596c-0.6354-0.25638-0.84827-3.0264-0.23265-3.0264 0.20035 0 0.57645 0.48351 0.83566 1.0744 0.35965 0.81966 0.86753 1.0744 2.1428 1.0744 1.4528 0 1.6713-0.15209 1.6713-1.1635 0-0.9296-0.33596-1.2498-1.6713-1.5926-3.2174-0.82618-4.2322-2.8009-2.3876-4.6456 1.7416-1.7416 5.2592-1.1466 5.2421 0.88681l-0.011 1.262-0.86053-1.1186c-1.1037-1.4349-3.1085-1.2746-3.3276 0.2662-0.11773 0.82841 0.1409 1.1174 1.1938 1.3338 3.8576 0.79301 4.9585 2.7077 2.7392 4.7644-1.2436 1.1525-3.6726 1.5553-5.3346 0.88469zm-85.119-0.63881c0-0.26258 0.32232-0.4775 0.71625-0.4775 1.081 0 1.0255-5.9873-0.0618-6.5955-0.86878-0.48622-0.55608-0.76524 1.3745-1.2267l1.3132-0.31395v4.0682c0 3.2976 0.13551 4.068 0.71627 4.068 0.39393 0 0.71624 0.21493 0.71624 0.47751 0 0.2626-1.0744 0.4775-2.3876 0.4775-1.3133 0-2.3877-0.2149-2.3877-0.4775zm5.2528 0c0-0.26258 0.32234-0.4775 0.71629-0.4775 1.081 0 1.0253-5.9873-0.0618-6.5955-0.86886-0.48622-0.55616-0.76524 1.3744-1.2267 1.0346-0.24722 1.3132-0.1443 1.3132 0.48544 0 0.74431 0.0608 0.74494 0.87332 0.0101 0.90521-0.81917 2.7963-1.0357 3.7111-0.42478 1.0523 0.70259 1.6234 2.4948 1.6234 5.0945 0 2.0442 0.16539 2.6579 0.71626 2.6579 0.394 0 0.71632 0.2149 0.71632 0.47751 0 0.26262-0.75211 0.4775-1.6713 0.4775h-1.6713v-3.0697c0-3.9923-1.084-5.302-3.3741-4.0762-0.75469 0.40389-0.92362 1.0152-0.92362 3.3426 0 2.2136 0.15964 2.8484 0.71632 2.8484 0.39398 0 0.71631 0.2149 0.71631 0.47751 0 0.26262-1.0745 0.4775-2.3877 0.4775-1.3132 0-2.3876-0.21488-2.3876-0.4775zm56.825 0c0-0.26258 0.32233-0.4775 0.71634-0.4775 1.081 0 1.0253-5.9873-0.0618-6.5955-0.86871-0.48622-0.5561-0.76524 1.3746-1.2267 1.0346-0.24722 1.3132-0.1443 1.3132 0.48544 0 0.74431 0.0608 0.74494 0.87323 0.0101 1.2849-1.1628 2.4694-1.0074 2.4694 0.32395 0 1.4338-0.46316 1.8797-1.2631 1.2159-0.34913-0.28978-0.95984-0.40207-1.3571-0.24962-1.0155 0.38962-1.0476 6.0374-0.0345 6.0374 0.37836 0 0.82085 0.2149 0.98318 0.47751 0.1833 0.29654-0.71129 0.47749-2.3594 0.47749-1.4599 0-2.6545-0.21488-2.6545-0.47749zm16.713 0c0-0.26258 0.32233-0.4775 0.71632-0.4775 0.56847 0 0.71627-0.6898 0.71627-3.3427 0-2.8278-0.12507-3.3427-0.81185-3.3427-1.1413 0-0.20085-0.76192 1.4087-1.1412l1.3132-0.30965v4.0682c0 3.2976 0.1357 4.068 0.71627 4.068 0.39398 0 0.71628 0.21493 0.71628 0.4775 0 0.26261-1.0744 0.47751-2.3876 0.47751-1.3132 0-2.3876-0.2149-2.3876-0.47751zm-77.514-11.175c-0.322-0.83912 0.0632-1.2405 1.1895-1.2405 0.55712 0 0.87548 0.34742 0.87548 0.95516 0 1.1124-1.6596 1.3418-2.065 0.28534zm78.946-0.20574c0-1.1265 0.4014-1.5115 1.2405-1.1895 1.0563 0.40539 0.82687 2.065-0.28545 2.065-0.60783 0-0.95503-0.31838-0.95503-0.8755zm-56.03-6.6057c-0.62599-0.62617-0.30191-1.0206 0.63676-0.77513 0.66418 0.17373 0.95505 0.0148 0.95505-0.52224 0-0.42452-0.30229-0.77205-0.67163-0.77205-0.421 0-0.5844-0.33319-0.43797-0.89321 0.16904-0.64638-0.0855-0.97337-0.91847-1.1826-1.734-0.4352-3.0296-3.1513-2.4564-5.1498 0.56503-1.9703 3.0794-3.7573 5.2864-3.7573 1.8453 0 2.4572 0.92325 1.6792 2.5334-0.39919 0.82616-0.51327 0.87471-0.53876 0.22917-0.0423-1.0634-1.7115-1.9452-2.9428-1.5543-0.53044 0.16833-1.1759 0.86214-1.4343 1.5419-1.1043 2.9046 1.0419 5.7657 3.8965 5.1947 1.7487-0.3497 1.4572 0.4632-0.43383 1.2094l-1.2668 0.50002 1.0745 0.49852c0.59089 0.27422 1.0744 0.88805 1.0744 1.3639 0 1.2975-2.5999 2.4375-3.5019 1.5356zm-51.533-3.8101c-0.55109-0.15778-0.83568-0.71536-0.83568-1.6368 0-1.5782 0.71651-1.8839 1.0876-0.4644 0.33287 1.2728 2.588 1.8036 3.5545 0.83702 0.99684-0.99686 0.50669-2.0519-1.1416-2.4574-4.9297-1.2128-4.6009-5.7894 0.39011-5.431 1.8687 0.13403 2.0936 0.28174 2.2295 1.4623 0.17328 1.5068-0.63062 1.793-1.0058 0.35816-0.29904-1.1432-2.9473-1.3588-3.3636-0.27365-0.32752 0.85346 0.46467 1.5297 2.3108 1.9725 0.78636 0.18859 1.6985 0.55455 2.0267 0.813 0.89332 0.70371 0.7195 2.9594-0.29882 3.8811-0.94206 0.85252-3.5381 1.3448-4.9538 0.93926zm8.1179-4e-3c-0.90085-0.2534-1.229-3.0301-0.35814-3.0301 0.2626 0 0.47753 0.4256 0.47753 0.94588 0 1.1829 1.8974 1.7376 3.327 0.97259 1.5147-0.81068 0.98952-2.0686-1.1572-2.772-2.4363-0.79823-3.1249-1.4048-3.1249-2.7523 0-1.8228 1.2673-2.6678 3.7587-2.5064 2.0145 0.1304 2.2237 0.25941 2.3614 1.4563 0.17549 1.5257-0.63271 1.7849-1.0144 0.32522-0.20735-0.79276-0.57214-0.95787-1.8464-0.83562-1.1693 0.1121-1.588 0.38423-1.588 1.032 0 0.63168 0.67303 1.1029 2.3876 1.6713 2.136 0.70835 2.4032 0.95223 2.5351 2.3142 0.11324 1.1694-0.11401 1.6939-0.9801 2.2613-1.2748 0.83525-3.5312 1.2686-4.7782 0.91775zm9.4194-0.35418c-2.8523-1.2428-3.4979-5.209-1.2188-7.4881 2.6119-2.6121 7.0457-1.4512 7.9311 2.0766 0.47933 1.9097-0.93404 4.5794-2.8479 5.379-1.9946 0.83333-2.0256 0.8336-3.8644 0.0325zm3.7976-1.0388c1.0277-1.0276 1.0104-5.1293-0.0261-6.1655-1.1535-1.1535-3.1574-0.73339-3.8972 0.81725-0.47447 0.99461-0.50014 1.7538-0.10883 3.2074 0.72002 2.6739 2.5351 3.6376 4.0318 2.1409zm6.7194 1.2541c-2.6853-1.099-3.7749-5.1282-1.9363-7.1599 2.0088-2.2196 6.1088-2.5857 6.3939-0.57078 0.0885 0.62112-0.0737 1.3626-0.3581 1.6474-0.37233 0.37214-0.51796 0.29423-0.51796-0.27712 0-1.6324-2.9242-2.0968-3.9323-0.62464-0.19293 0.2818-0.35411 1.3182-0.35814 2.3031-0.011 2.4831 1.4403 3.9008 3.6278 3.5459 1.9013-0.30851 2.1659 0.44771 0.39276 1.1219-1.4313 0.54405-2.0109 0.54658-3.3117 0.0145zm40.999-3e-3c-2.1146-0.89067-3.2467-4.3574-2.2614-6.9248 0.86157-2.2452 5.7195-2.8829 7.6042-0.99814 3.3661 3.3659-0.95352 9.7716-5.3428 7.9229zm3.4391-1.1774c1.1234-0.82149 1.3041-4.9288 0.27158-6.173-0.91297-1.0999-3.2472-1.019-3.8644 0.13405-0.98985 1.8496-0.36715 5.3521 1.1291 6.3512 0.78385 0.52338 1.4333 0.44102 2.4637-0.31232zm30.891 1.2959c-0.81665-0.15733-1.0744-0.53586-1.0744-1.5782 0-0.75411 0.21497-1.5039 0.47753-1.6662 0.2627-0.16233 0.47751 0.13965 0.47751 0.67126 0 1.7318 2.6785 2.551 4.0046 1.2249 1.1059-1.1057 0.45988-1.9796-1.9032-2.5746-4.8049-1.2099-3.4523-5.7793 1.5417-5.2085 1.137 0.12995 1.3913 0.40122 1.4906 1.5892l0.11964 1.4325-0.7748-1.0744c-0.50182-0.6959-1.2705-1.0744-2.1822-1.0744-1.1817 0-1.3831 0.17025-1.255 1.0604 0.11642 0.80901 0.68395 1.2099 2.3952 1.6918 3.4199 0.96302 3.7505 3.8509 0.59196 5.1706-1.6273 0.6799-1.9693 0.70922-3.909 0.33572zm33.057-0.3296c-2.8525-1.2428-3.4981-5.209-1.219-7.4881 2.5553-2.5552 7.1711-1.4442 7.9064 1.9031 0.47139 2.1466-0.83865 4.7232-2.8231 5.5525-1.9946 0.83335-2.0256 0.8336-3.8643 0.0325zm3.7133-1.1241c0.77127-0.86402 0.9842-1.8272 0.88973-4.0248-0.11076-2.5754-2.8963-3.698-4.5746-1.8436-1.6899 1.8673 0.0439 6.704 2.4029 6.704 0.29493 0 0.87173-0.37612 1.282-0.83565zm5.0131 1.4825c-0.551-0.15778-0.83568-0.71535-0.83568-1.6368 0-1.5782 0.71652-1.8839 1.0877-0.46438 0.33272 1.2727 2.5878 1.8036 3.5544 0.83701 0.99685-0.99685 0.50665-2.0519-1.1416-2.4574-4.9296-1.2128-4.6009-5.7894 0.39021-5.431 1.8686 0.13402 2.0935 0.28174 2.2294 1.4623 0.16853 1.4646-0.62581 1.8112-0.98686 0.43041-0.31162-1.1915-2.1-1.6048-3.0093-0.69537-0.94864 0.94855-0.20627 1.8798 1.8486 2.319 0.83546 0.17841 1.7876 0.54086 2.1159 0.80547 0.89258 0.7191 0.71977 2.9697-0.29894 3.8916-0.94194 0.85251-3.538 1.3448-4.9538 0.93925zm26.902-0.60545c-0.80964-0.80999-0.99645-1.5895-0.99645-4.1603v-3.1636l-1.4922 0.29854c-0.8208 0.1641-1.7985 0.29831-2.1727 0.29831-0.52665 0-0.6481 0.62087-0.53728 2.7458 0.12805 2.4542 0.26027 2.7623 1.2455 2.902 0.89375 0.12673 0.99558 0.28487 0.53849 0.83564-0.81164 0.97804-2.7167 0.83672-3.2953-0.24426-0.27183-0.50795-0.49433-2.1196-0.49433-3.5813 0-2.2071-0.14173-2.6604-0.83565-2.673-0.79591-0.0145-0.79591-0.0458 0-0.64954 0.4837-0.36724 0.83565-1.2659 0.83565-2.1337 0-0.82454 0.21488-1.5316 0.47756-1.571 1.5313-0.22966 1.6654-0.10721 1.516 1.385-0.14095 1.4073-0.0297 1.559 1.1938 1.6271 1.8778 0.10468 2.1314 0.0836 3.6174-0.30941l1.3132-0.34693v3.6164c0 3.1277 0.12904 3.6855 0.95504 4.1276 1.1033 0.59045 2.5798-3.4e-4 3.0477-1.2197 0.16221-0.42263 0.29492-1.718 0.29492-2.8784 0-1.557-0.18759-2.1098-0.71626-2.1098-0.39393 0-0.71627-0.21489-0.71627-0.47751 0-0.26255 0.26853-0.48046 0.59689-0.48406 0.32831-4e-3 1.0804-0.13602 1.6713-0.29449 1.0534-0.28221 1.0745-0.20717 1.0745 3.8268 0 3.339 0.1351 4.1146 0.71629 4.1146 0.39401 0 0.71633 0.21495 0.71633 0.47752 0 0.2626-0.75214 0.4775-1.6714 0.4775-1.2369 0-1.6713-0.20547-1.6713-0.79025 0-0.72121-0.0736-0.72448-0.83564-0.0374-1.4877 1.3405-3.2673 1.4997-4.3757 0.39133zm25.864 0.57671c-0.8168-0.15735-1.0744-0.53587-1.0744-1.5782 0-1.669 0.82617-2.342 1.0403-0.84736 0.21464 1.4989 2.5074 2.2845 3.569 1.2231 1.1273-1.1273 0.4859-2.1578-1.7115-2.7496-4.6334-1.2476-3.1604-5.7348 1.7004-5.1794 1.1368 0.12995 1.3913 0.40122 1.4905 1.5892l0.11964 1.4325-0.77477-1.0744c-0.5019-0.6959-1.2706-1.0744-2.1824-1.0744-1.1693 0-1.3817 0.17387-1.2549 1.0268 0.11361 0.76452 0.72444 1.1931 2.3904 1.6769 3.4218 0.994 3.7539 3.8998 0.59661 5.219-1.6272 0.6799-1.9692 0.70921-3.9088 0.33572zm-214.05-0.56332c0-0.23209 0.38453-0.52239 0.85447-0.6453 0.56578-0.14802 1.719-2.2644 3.4132-6.2636 1.4073-3.322 2.7955-6.0373 3.0851-6.034 0.28947 3e-3 1.6008 2.6084 2.914 5.7888 1.3132 3.1805 2.7637 6.023 3.2232 6.3167 1.4282 0.91234 0.93495 1.2591-1.7907 1.2591-1.4445 0-2.6263-0.2149-2.6263-0.47751 0-0.26257 0.32231-0.47752 0.71626-0.47752 0.86066 0 0.89937-0.508 0.16213-2.1264-0.49252-1.0809-0.83623-1.2162-3.0871-1.2162-2.0156 0-2.6339 0.18869-3.0272 0.92358-0.70957 1.3256-0.60912 2.419 0.22193 2.419 0.39392 0 0.71627 0.21495 0.71627 0.47752 0 0.26261-1.0744 0.47751-2.3876 0.47751-1.3132 0-2.3876-0.18976-2.3876-0.42176zm8.3112-6.6218c-0.42613-0.98479-0.89344-2.2035-1.0385-2.7079-0.20322-0.7064-0.52064-0.33561-1.3808 1.6132-0.61414 1.3918-1.1168 2.6102-1.1168 2.708 0 0.0983 0.96992 0.17739 2.1552 0.17739h2.1553zm41.351 6.6171c0-0.23449 0.32233-0.55012 0.71627-0.70141 0.53558-0.2055 0.71624-1.0618 0.71624-3.3937 0-2.454-0.15263-3.1189-0.71624-3.1189-0.39395 0-0.71627-0.21489-0.71627-0.4775 0-0.26255 0.26857-0.48046 0.59689-0.48407 0.3283-4e-3 1.0804-0.13601 1.6713-0.29445 1.0534-0.28226 1.0745-0.20721 1.0745 3.8268 0 3.339 0.135 4.1146 0.71627 4.1146 0.39397 0 0.71632 0.21494 0.71632 0.47751 0 0.26261-1.0744 0.47751-2.3877 0.47751-1.3132 0-2.3876-0.19189-2.3876-0.42638zm6.3033-0.1467c-0.31521-0.31517-0.57301-1.1696-0.57301-1.899 0-1.5015 1.3218-2.5913 3.7258-3.0721 1.8257-0.36519 1.989-1.4287 0.33499-2.1822-0.9852-0.44892-1.3582-0.39244-2.1517 0.32567-0.52799 0.47778-1.1197 0.7082-1.3151 0.51215-0.63012-0.63245 1.85-2.1843 3.4909-2.1843 2.2503 0 3.0781 1.3768 3.0781 5.1202 0 2.3966 0.14918 2.9977 0.74438 2.9977 0.40949 0 0.6117 0.21495 0.44938 0.47751-0.49603 0.80249-3.1039 0.57916-3.1039-0.26578 0-0.67283-0.10069-0.67283-1.0614 0-1.2669 0.88741-2.8278 0.96094-3.6184 0.17021zm4.1067-1.4326c0.67586-0.67586 0.77159-2.7696 0.12654-2.7696-0.24558 0-0.99768 0.20953-1.6714 0.46577-1.6657 0.63327-1.7644 2.8769-0.12648 2.8769 0.60408 0 1.3562-0.25793 1.6714-0.57308zm13.562 1.4326c-1.6107-1.6105 0.0711-4.3989 2.9817-4.945 2.0158-0.37812 2.2274-1.424 0.45191-2.233-1.0498-0.47831-1.3402-0.43906-1.8434 0.24903-0.73235 1.0016-1.2082 1.0477-1.2082 0.11727 0-1.6089 4.0845-2.3108 5.4575-0.93782 0.52732 0.52734 0.75036 1.6675 0.75036 3.8352 0 2.3016 0.1819 3.1546 0.71627 3.3596 1.2885 0.49453 0.7522 1.1278-0.95502 1.1278-1.1943 0-1.6713-0.21223-1.6713-0.74329 0-0.67283-0.1007-0.67283-1.0613 0-1.267 0.88741-2.8278 0.96093-3.6184 0.17021zm4.1066-1.4326c0.67587-0.67586 0.77164-2.7696 0.12658-2.7696-0.24557 0-0.99763 0.20953-1.6713 0.46577-1.154 0.43872-1.6438 1.8212-0.90661 2.5586 0.50687 0.50674 1.827 0.36969 2.4513-0.25475zm21.155 1.0993c-1.186-1.1862-1.6426-3.3821-1.0353-4.9796 0.66542-1.75 3.2245-3.2683 5.165-3.0643 1.5072 0.15838 1.552 0.11073 1.552-1.6512 0-1.2943-0.20525-1.8142-0.71631-1.8142-1.1035 0-0.84773-0.80833 0.35815-1.1315 2.284-0.61215 2.2683-0.65488 2.2683 6.1455 0 5.412 0.11483 6.4466 0.71627 6.4466 0.39396 0 0.71632 0.21494 0.71632 0.47751 0 0.26261-0.75212 0.47751-1.6713 0.47751-1.2369 0-1.6714-0.20548-1.6714-0.79025 0-0.73546-0.0612-0.73546-0.87329 0-1.1763 1.0646-3.6883 1.004-4.8084-0.11611zm5.1087-1.0993c0.31518-0.31514 0.57299-1.6091 0.57299-2.8754 0-1.9924-0.16072-2.3755-1.1938-2.8463-2.7242-1.2412-4.666 1.5298-3.3236 4.7427 0.51668 1.2365 0.92532 1.552 2.01 1.552 0.74875 0 1.6193-0.25797 1.9345-0.57309zm5.6211 1.2553c-0.41269-0.41279-0.75032-1.0671-0.75032-1.4544 0-1.1702 2.1724-2.9644 4.0056-3.3083 1.901-0.35663 2.0977-0.73105 0.97423-1.8546-0.94266-0.94259-1.8431-0.95378-2.7628-0.0342-0.90228 0.90237-1.262 0.90707-1.262 0.0169 0-1.6074 4.5761-2.3626 5.7493-0.94899 0.33752 0.4066 0.7015 2.1795 0.80882 3.9396 0.10745 1.7602 0.39481 3.2719 0.63874 3.3595 0.99546 0.35728 0.34797 1.0346-0.98901 1.0346-1.0004 0-1.4326-0.23261-1.4326-0.77127 0-0.70986-0.0942-0.70986-1.1771 0-1.4878 0.97488-2.8415 0.98233-3.8029 0.0209zm4.0563-1.1766c1.2415-0.66435 1.2579-2.8483 0.0217-2.8483-1.4026 0-3.0306 1.5385-2.6574 2.5113 0.36186 0.9428 1.2838 1.0607 2.636 0.33705zm17.398 1.4494c-0.16233-0.26257 0.14721-0.47751 0.68808-0.47751 0.9374 0 0.9832-0.26406 0.9832-5.6746 0-5.4517-0.0425-5.6898-1.0744-6.0619-1.2609-0.45426 5.902-0.88931 7.6054-0.46184 2.78 0.69768 3.3309 3.365 1.1461 5.5497-1.4123 1.4124-3.9526 1.9224-4.5732 0.91831-0.17114-0.2769 0.29391-0.47751 1.1072-0.47751 1.6706 0 2.5936-0.96446 2.5936-2.7099 0-1.5227-1.2339-2.5428-3.0758-2.5428h-1.3413v5.7303c0 4.7753 0.1194 5.7304 0.71629 5.7304 0.39399 0 0.71633 0.21494 0.71633 0.47751 0 0.26261-1.1692 0.47751-2.5982 0.47751-1.429 0-2.731-0.2149-2.8933-0.47751zm11.222 0c0-0.26257 0.32228-0.47751 0.71629-0.47751 0.56846 0 0.71634-0.68981 0.71634-3.3426 0-2.6529-0.14795-3.3427-0.71634-3.3427-0.39401 0-0.71629-0.21489-0.71629-0.4775 0-0.26255 0.26865-0.48046 0.5969-0.48407 0.3283-4e-3 1.0804-0.13601 1.6714-0.29444 0.81819-0.21928 1.0744-0.0868 1.0744 0.55809 0 0.78934 0.0589 0.79308 0.87324 0.0561 1.3241-1.1983 2.4694-1.007 2.4694 0.41268 0 1.0577-0.15006 1.1652-1.245 0.89044-1.6057-0.40299-2.0809 0.35254-2.0902 3.3235-5e-3 1.9148 0.15709 2.356 0.9477 2.5626 1.8534 0.48467 0.92292 1.0934-1.6713 1.0934-1.4445 0-2.6264-0.21491-2.6264-0.47752zm27.509-0.27779c-0.15945-0.41553-0.28989-2.027-0.28989-3.5814 0-2.1938-0.16027-2.8262-0.71624-2.8262-0.39399 0-0.7163-0.2148-0.7163-0.47752 0-0.26253 0.3223-0.4775 0.7163-0.4775 0.5002 0 0.71624-0.50397 0.71624-1.6713 0-0.91924 0.0904-1.6713 0.19973-1.6713 0.10973 0 0.53958-0.13047 0.95501-0.28986 0.60275-0.23126 0.75531 0.0585 0.75531 1.4325 0 1.5189 0.14107 1.7224 1.1938 1.7224 0.74287 0 1.1938 0.27053 1.1938 0.71626 0 0.44572-0.45096 0.71626-1.1938 0.71626-1.1407 0-1.1938 0.12735-1.1938 2.8652 0 2.7734 0.0403 2.8651 1.2524 2.8651 1.059 0 1.1605 0.11046 0.65776 0.71626-0.79037 0.95228-3.16 0.92614-3.5303-0.0395zm4.4854 0.27779c0-0.26257 0.32231-0.47751 0.71627-0.47751 0.56844 0 0.71629-0.68981 0.71629-3.3426 0-2.6529-0.14792-3.3427-0.71629-3.3427-0.39396 0-0.71627-0.21489-0.71627-0.4775 0-0.26255 0.26861-0.48046 0.59689-0.48407 0.32824-4e-3 1.0804-0.13601 1.6713-0.29444 1.0499-0.28133 1.0744-0.19905 1.0744 3.6029 0 3.0181 0.16068 3.9527 0.71627 4.1657 1.4718 0.56483 0.63754 1.1278-1.6713 1.1278-1.3132 0-2.3876-0.2149-2.3876-0.47751zm24.644-0.27779c-0.15946-0.41553-0.28986-2.027-0.28986-3.5814 0-2.3674-0.13572-2.8286-0.83567-2.8413-0.79586-0.0145-0.79586-0.0458 0-0.64954 0.48376-0.36724 0.83567-1.2659 0.83567-2.1337 0-0.82454 0.0904-1.4992 0.19973-1.4992 0.10974 0 0.53955-0.13047 0.95504-0.28986 0.60277-0.23126 0.75531 0.0585 0.75531 1.4325 0 1.5189 0.14102 1.7224 1.1938 1.7224 0.74289 0 1.1938 0.27053 1.1938 0.71626 0 0.44572-0.45096 0.71626-1.1938 0.71626-1.1407 0-1.1938 0.12735-1.1938 2.8652 0 2.7734 0.0404 2.8651 1.2523 2.8651 1.059 0 1.1605 0.11046 0.65779 0.71626-0.79036 0.95228-3.16 0.92614-3.5303-0.0395zm5.2358 4e-3c-1.687-1.6871-0.0278-4.1618 3.1892-4.7556 2.0316-0.37513 2.1754-0.68317 0.86983-1.8648-0.92734-0.83928-2.8993-0.67603-2.8993 0.23996 0 0.24494-0.21492 0.44537-0.47753 0.44537-0.83759 0-0.51238-1.3802 0.4461-1.8932 1.2534-0.67094 4.0076-0.6249 4.7112 0.0792 0.33381 0.33369 0.57299 1.9345 0.57299 3.8352 0 2.4591 0.17634 3.3298 0.71628 3.5369 1.2136 0.46583 0.79313 1.1278-0.71628 1.1278-1.0004 0-1.4326-0.2326-1.4326-0.77127 0-0.70987-0.0941-0.70987-1.177 0-1.4877 0.97488-2.8415 0.98232-3.8029 0.0209zm4.0562-1.1766c1.2415-0.66434 1.2581-2.8483 0.0217-2.8483-1.3706 0-3.1315 1.62-2.7739 2.552 0.34629 0.9023 1.4067 1.0164 2.7524 0.29624zm-262.01-0.35183c-0.5549-0.4538-1.5066-1.9532-2.1146-3.3321-0.60812-1.3787-1.2822-2.5069-1.4981-2.5069-0.21582 0-0.39235 1.0924-0.39235 2.4274 0 3.311-0.80177 2.868-2.2733-1.2557-1.5965-4.4738-1.849-6.668-0.87888-7.638 0.96412-0.96416 0.74048-1.9358-1.8634-8.0981-1.7064-4.0387-3.5659-9.2286-4.1535-11.594-0.10451-0.4209-0.84671-0.16972-2.3897 0.8089-2.7872 1.7675-3.3401 3.4913-3.2028 9.9846 0.0556 2.6127-0.14023 5.2043-0.44956 5.9644-0.85885 2.1102-0.64844 4.049 0.64668 5.9547 2.0801 3.0612 1.2371 3.7284-2.7362 2.1658-3.431-1.3494-5.143-2.9056-5.143-4.6749 0-1.7183-0.863-4.551-1.3865-4.551-0.18592 0-1.0758 0.54422-1.9775 1.2094-1.999 1.4749-2.4223 0.75633-0.73547-1.2483 0.80867-0.96111 1.2344-2.0387 1.2344-3.1246 0-1.2097 0.3548-1.9699 1.3132-2.8134 0.72226-0.63569 1.5818-1.1626 1.9101-1.1709 0.33828-0.0085 0.5969-0.62134 0.5969-1.4143 0-1.3254-0.07498-1.3777-1.4225-0.99128-1.713 0.49127-5.2629 2.4385-5.2629 2.8868 0 0.17624-1.2384 1.1891-2.752 2.2508-3.0601 2.1465-6.1891 3.1929-8.2162 2.7477-1.2487-0.27424-8.3401-5.8172-10.126-7.9152-1.1628-1.3658-4.385-2.3527-7.7364-2.3696-1.6085-0.0082-4.5361-0.23116-6.5059-0.49565-3.0763-0.41308-5.9778-0.52367-9.4311-0.35944-1.1793 0.0562-7.3563 2.1365-11.072 3.7292-6.2468 2.6774-8.5005 3.2887-14.993 4.0669-3.6333 0.43548-7.2217 1.0064-7.9741 1.2687-1.4038 0.48936-2.2537 2.1467-2.473 4.8226-0.13003 1.586-0.86479 1.4665-1.7157-0.27895-0.96397-1.9775-2.1816-1.589-4.1058 1.3099-0.94477 1.4233-1.7178 2.82-1.7178 3.1038 0 0.28381-0.21489 0.51596-0.47752 0.51596-0.26264 0-0.47752-0.32226-0.47752-0.71626 0-0.39394-0.21489-0.71628-0.47752-0.71628-0.79669 0-0.53471-2.3972 0.40944-3.7464 0.48783-0.69725 0.97132-1.5211 1.0744-1.831 0.10311-0.30988 1.337-1.7647 2.7421-3.233 2.6488-2.7681 5.3279-4.2938 8.7959-5.0093 1.1111-0.22924 3.2021-0.75771 4.6466-1.1744 1.4445-0.41668 4.1276-1.0891 5.9623-1.4943 1.8347-0.40517 3.5063-0.90709 3.7146-1.1154 0.20828-0.20828-1.454-1.1953-3.6941-2.1935-2.24-0.99811-4.0728-1.9874-4.0728-2.1984 0-0.21096 0.42977-0.52001 0.95504-0.68673 0.81367-0.25824 0.95505-0.72251 0.95505-3.1361 0-2.7661-0.03095-2.8336-1.3132-2.858l-1.3132-0.0251 1.1594-0.80587c2.0967-1.4574 4.5069-2.0738 9.1614-2.3428 3.92-0.22656 5.0525-0.11156 7.7543 0.78755 1.775 0.59069 3.5391 1.53 4.0188 2.1398 0.67993 0.86438 1.0832 1.0025 1.97 0.67441 0.77037-0.285 1.0326-0.66933 0.84835-1.2434-1.5877-4.9467-3.8582-9.8232-5.3533-11.498-0.244-0.27332-4.5169 2.3755-4.5169 2.8 0 0.2194 0.48349 0.46761 1.0744 0.55154 0.59094 0.08394 1.0801 0.47492 1.0871 0.86888 7e-3 0.39396 0.18078 0.9849 0.38632 1.3132 0.20938 0.33444 0.15534 0.5969-0.1229 0.5969-0.27313 0-0.6184 0.48349-0.76725 1.0744-0.22959 0.91147-0.59096 1.0744-2.3826 1.0744-2.5906 0-3.9724-1.1993-4.2963-3.7289-0.19417-1.5166 0.08374-2.2179 1.9196-4.8445 1.1806-1.6891 2.1466-3.1499 2.1466-3.2462 0-0.68086 4.9702-5.1325 5.7304-5.1325 1.4932 0 4.4934 3.0455 7.4481 7.5606 5.2933 8.0887 5.0033 7.7345 5.928 7.2396 0.46693-0.24988 2.0197-0.59195 3.4506-0.76012 2.9134-0.3424 4.1891 0.1276 6.0942 2.2453 0.82114 0.91276 2.1509 1.57 4.2596 2.1054 1.6862 0.42812 4.6166 1.6001 6.5121 2.6043 2.9036 1.5384 3.812 1.7996 5.7684 1.6584 1.2771-0.0922 2.8-0.17704 3.3842-0.18872 0.6624-0.01329 1.3184-0.5155 1.7429-1.3344 0.91758-1.7701 8.8951-9.5756 12.593-12.321 2.5347-1.882 3.4011-2.2522 5.7748-2.4674 2.663-0.24148 2.8366-0.18952 3.7392 1.1195 1.654 2.3985 2.1965 4.357 1.9687 7.1054l-0.2177 2.624 1.472 0.06816c0.80943 0.03759 2.3724 0.11368 3.4734 0.16924 4.5192 0.22808 6.4878 2.433 7.3197 8.1986 0.93234 6.4622 1.4577 9.5678 2.6121 15.44 1.3264 6.748 1.6418 7.8978 3.057 11.142 0.55365 1.2693 1.0067 2.823 1.0067 3.4527 0 0.81889 0.68402 1.6557 2.4011 2.9376 1.3556 1.012 2.3406 2.106 2.2623 2.5125-0.28181 1.4632-6.6769 1.9236-8.2987 0.59738zm127.91-9.1816c0.10358-0.52163 0.7879-0.71633 2.5173-0.71633 1.3064 0 2.6436-0.17384 2.972-0.3864 0.3839-0.24853 0.59688-0.13077 0.59688 0.33002 0 1.1021-0.9639 1.489-3.7111 1.489-1.9826 0-2.4871-0.15221-2.3751-0.71627zm-23.202-0.20386c-0.36414-0.94904 0.98613-2.0257 1.6755-1.3362 0.65944 0.65948 0.16541 2.0175-0.73376 2.0175-0.37412 0-0.79786-0.30673-0.94176-0.68137zm124.95-0.0674c-0.39799-1.0371 0.61237-2.0124 1.3356-1.2892 0.61124 0.61111 0.2326 2.0377-0.54089 2.0377-0.27912 0-0.63674-0.33684-0.79468-0.74853zm27.178-4.7346c-2.8322-0.79643-5.5378-2.1418-7.2447-3.6022l-1.1559-0.98905 2.8123-2.842c1.5468-1.5631 2.9749-2.842 3.1735-2.842 0.19866 0 0.23249 0.64337 0.0757 1.4297-0.15728 0.78634-0.0193 2.0737 0.30681 2.8609 2.3926 5.7761 16.239 4.5288 16.239-1.4628 0-1.8448-1.5637-2.8256-4.5233-2.8373-3.614-0.0141-8.7111-0.85331-10.427-1.7164-2.1602-1.0868-5.0115-3.9143-6.2051-6.1532-1.4061-2.6375-1.4547-8.2716-0.0953-10.962 1.1262-2.228 4.3136-4.7952 6.8168-5.4904 2.5673-0.71299 19.758-0.64669 18.492 0.07125-0.52529 0.29788-1.1129 0.77482-1.3059 1.0599-0.19298 0.28508-0.3541 4.742-0.3581 9.9042l-9e-3 9.3859 1.6543 1.9801c2.7114 3.2453 2.6777 6.2981-0.10146 9.2113-2.9088 3.0491-12.389 4.6134-18.147 2.9944zm10.863-21.922c0-7.8943-0.0916-8.8937-0.9011-9.894-1.7134-2.1159-7.4768-1.2019-10.087 1.5996-1.6976 1.8222-2.5754 5.7898-1.9596 8.8566 1.0415 5.1862 4.8096 8.0718 10.679 8.178l2.2683 0.04106zm-180.5 21.31c0-0.20036 0.4715-0.57647 1.048-0.83563 0.57623-0.25934 1.1933-1.0283 1.371-1.709 0.46806-1.7924 0.52518-27.149 0.0654-28.846-0.21358-0.78792-0.85988-1.6447-1.4361-1.904-0.57644-0.25924-1.048-0.63531-1.048-0.83567 0-0.20036 4.0291-0.3622 8.9535-0.35964 8.4214 0.0045 9.0955 0.07183 11.341 1.1353 4.8894 2.3154 6.9301 5.7449 6.9136 11.618-0.0233 8.1807-3.6824 11.207-14.402 11.909l-4.6884 0.30724v3.001c0 3.5862 0.55444 5.2594 1.8828 5.6809 2.3425 0.74341 0.62134 1.2025-4.5091 1.2025-3.0204 0-5.4916-0.16394-5.4916-0.36431zm15.514-13.063c4.2316-1.1748 6.7517-6.3605 5.573-11.467-1.1222-4.8616-4.0102-7.0566-9.5185-7.2345l-3.2117-0.10373-0.13169 7.5268c-0.0729 4.1397 0.0489 8.2226 0.26886 9.0729 0.65143 2.5166 3.1139 3.2904 7.02 2.2059zm40.575 2.5403c-4.7974-2.3186-7.3522-6.2533-7.3706-11.352-0.027-7.4815 4.8365-12.762 12.385-13.446 8.4407-0.76538 15.618 6.2219 14.664 14.276-0.83748 7.0712-5.595 11.374-12.973 11.732-3.4517 0.16752-4.0984 0.05096-6.7058-1.2092zm9.8676-2.3551c5.1297-3.0302 5.0115-15.471-0.1775-18.678-2.149-1.3281-5.3111-1.3533-7.4338-0.05908-5.0616 3.086-4.8404 15.055 0.34187 18.489 1.9859 1.3159 5.2725 1.4283 7.2694 0.24868zm17.133 2.9474c-1.1819-0.38744-2.7398-0.57631-3.4621-0.41969l-1.3132 0.28476v-5.3189c0-5.0869 0.48997-6.5135 1.133-3.2987 0.62544 3.1275 5.495 6.6196 9.2436 6.629 1.6382 0.0045 4.878-1.4435 5.3957-2.411 1.3571-2.5358-0.66669-4.68-5.8954-6.2458-6.8213-2.0428-8.9218-3.791-8.9218-7.4257 0-3.1992 1.0804-4.8175 4.1561-6.2256 2.4377-1.116 2.9736-1.1864 6.5319-0.85778 2.1321 0.19688 4.7347 0.39176 5.7835 0.43305l1.907 0.07504 0.16506 3.9286c0.10973 2.6158-0.0101 3.9286-0.35501 3.9286-0.286 0-0.52002-0.3438-0.52002-0.76404 0-1.2336-2.9918-3.8692-5.0364-4.4368-2.588-0.71851-4.3067-0.66118-5.9703 0.19916-3.0262 1.5649-1.2092 4.3251 3.7583 5.7093 6.9443 1.9349 9.8433 3.8127 10.391 6.7306 0.69996 3.7308-1.0338 6.978-4.7543 8.9042-2.5358 1.3129-9.0598 1.6231-12.236 0.58188zm-115.71-0.03838c-0.16773-0.1678 0.5624-1.081 1.6227-2.0295 1.7987-1.609 2.2451-2.6025 6.672-14.848 2.6094-7.2182 4.7443-13.37 4.7443-13.67 0-0.30052-0.3223-0.81392-0.71626-1.1409-1.4224-1.1806-0.62935-1.4326 4.5084-1.4326 4.8301 0 6.9597 0.52406 5.0724 1.2483-0.41066 0.15756-0.74665 0.74245-0.74665 1.2997 0 1.2797 8.4455 26.364 9.472 28.133 0.41903 0.72225 1.038 1.3132 1.3752 1.3132 0.33741 0 0.61341 0.32232 0.61341 0.71628 0 0.59518-0.92856 0.71629-5.4916 0.71629-4.0968 0-5.4915-0.15276-5.4915-0.60142 0-0.3308 0.42984-0.86982 0.95509-1.1979 1.1414-0.71283 1.2809-3.185 0.31031-5.4983-1.3977-3.3314-6.2494-6.5862-10.581-7.0985-1.4174-0.16768-1.4311-0.14572-3.2644 5.2677-1.5065 4.4485-1.7474 5.6414-1.3262 6.566 0.28317 0.62143 0.84173 1.1299 1.2413 1.1299 0.39961 0 0.72655 0.32232 0.72655 0.71628 0 0.58814-0.84008 0.71629-4.6957 0.71629-2.5825 0-4.8329-0.13728-5.0007-0.30504zm17.667-21.871-2.0622-6.1652-1.4698 4.2622c-2.4032 6.9687-2.4482 6.259 0.43575 6.8728 1.3899 0.29584 3.0643 0.83474 3.7209 1.1976 0.65662 0.3628 1.2486 0.51078 1.3155 0.3288 0.0673-0.182-0.80624-3.1052-1.9403-6.4961zm45.034 21.699c0-0.26264 0.32769-0.47752 0.72815-0.47752 1.322 0 1.6594-2.3468 1.6594-11.539v-9.089l-1.4447-1.3495-1.4446-1.3495 2.5533-0.319c3.9101-0.48854 4.7954-0.23004 5.3772 1.57l0.50477 1.5615 1.1666-1.2663c2.1268-2.3086 7.4627-3.9755 8.3144-2.5974 0.15401 0.24916 0.0375 1.4183-0.26016 2.598l-0.54008 2.145-2.3231-0.27512c-4.831-0.57215-6.2946 1.9199-6.3649 10.837-0.0535 6.7317 0.25358 8.3992 1.6253 8.8345 2.2831 0.72461 0.59426 1.1935-4.2988 1.1935-3.1835 0-5.2528-0.18812-5.2528-0.47752zm72.106 0c0-0.26264 0.31479-0.47752 0.69949-0.47752 1.4126 0 1.6882-1.8597 1.6882-11.395v-9.5471l-1.2667-0.99639c-0.69664-0.54802-1.1341-1.129-0.97207-1.291 0.16203-0.16204 1.7833-0.40114 3.6029-0.53132 3.6074-0.25812 3.353-0.43994 4.1092 2.937l0.30929 1.3814 1.5258-1.4738c2.2611-2.1841 5.3562-3.4152 8.617-3.4275 2.5467-0.0097 2.9369 0.13296 4.417 1.6131 0.89304 0.89297 1.6236 1.9674 1.6236 2.3876 0 1.1215 0.60853 0.93919 2.1157-0.63388 2.1226-2.2155 5.6672-3.5163 8.9372-3.2798 5.0109 0.36244 5.6538 1.8491 5.6577 13.083 3e-3 8.0735 0.42914 10.464 1.9526 10.948 2.2767 0.72259 0.50006 1.1811-4.5763 1.1811-5.0158 0-6.9447-0.46367-4.5423-1.0919 1.6549-0.43278 1.9973-2.4893 1.8325-11.009-0.15051-7.7853-0.19136-8.0705-1.2828-8.9536-1.478-1.1958-3.2182-1.1421-5.5131 0.17021-3.4762 1.9878-3.8448 2.9247-4.0224 10.227-0.18282 7.5105 3e-3 8.5874 1.6032 9.3167 0.64931 0.29588 1.1806 0.71833 1.1806 0.93882 0 0.57636-10.864 0.50215-11.222-0.07667-0.16232-0.26264 0.0246-0.47752 0.41516-0.47752 0.39074 0 1.0481-0.33768 1.4608-0.7504 0.62648-0.62651 0.75038-2.1674 0.75038-9.3334 0-8.4761-0.0149-8.5976-1.1722-9.7551-0.64463-0.64465-1.6653-1.1674-2.2682-1.1616-1.8793 0.01808-4.96 1.717-6.1573 3.3959-1.06 1.4862-1.1583 2.1238-1.3017 8.4416-0.12801 5.6414-0.0222 7.0373 0.60786 7.9985 0.41973 0.64047 1.0931 1.1645 1.4966 1.1645 0.40339 0 0.60065 0.21488 0.43831 0.47752-0.16769 0.27128-2.5517 0.47752-5.5197 0.47752-3.1647 0-5.2246-0.18828-5.2246-0.47752zm46.32 0c0-0.26264 0.31475-0.47752 0.69944-0.47752 1.4074 0 1.6882-1.8598 1.6882-11.179v-9.3321l-1.2184-0.79828c-1.538-1.0078-1.144-1.3435 2.3724-2.0216 5.0553-0.97482 4.5762-2.0848 4.5762 10.603 0 10.193 0.0753 11.215 0.87329 11.938 0.48031 0.43467 1.1376 0.7903 1.4607 0.7903 0.32309 0 0.45471 0.21488 0.29239 0.47752-0.16769 0.27128-2.5517 0.47752-5.5197 0.47752-3.1647 0-5.2246-0.18828-5.2246-0.47752zm4.0589-27.68c-1.3051-0.54767-3.929-3.4359-6.6247-7.2922-3.2352-4.6281-3.6701-4.7406-5.0063-1.2946-0.97071 2.5032-1.2853 2.8681-2.8481 3.3021-2.4003 0.66668-2.5509 0.65105-6.4991-0.67431-3.3047-1.1093-3.5946-1.132-5.8144-0.45448-1.285 0.3922-5.9894 1.0147-10.454 1.3833-4.4648 0.36864-12.043 1.0136-16.84 1.4331-8.6785 0.75908-20.589 1.3056-29.241 1.3418-4.2566 0.01806-4.9194-0.122-10.744-2.2663-5.5467-2.0419-6.7928-2.3226-11.699-2.6357-3.0203-0.19268-7.0219-0.18252-8.8924 0.02274-6.926 0.75952-23.476 1.4988-27.638 1.2346-4.5298-0.28752-8.4012-1.1939-8.5229-1.9954-0.0403-0.26264 1.4318-1.0147 3.2702-1.6713 1.8385-0.6566 5.0425-2.1412 7.1201-3.299 3.518-1.9606 3.8788-2.0643 5.2527-1.5098 4.7765 1.9277 7.0236 1.8273 15.254-0.68179 3.6126-1.1014 7.1242-1.829 9.707-2.0112 3.5484-0.2504 4.137-0.42313 4.7786-1.4024 0.46729-0.71324 0.61685-1.5745 0.41387-2.3834-0.27544-1.0974-3.3736-7.0287-6.9497-13.305-0.59858-1.0506-2.9165-5.4557-5.151-9.7892-4.551-8.8261-5.7324-10.816-7.2033-12.131-1.1617-1.0391-1.3408-2.1942-0.34026-2.1942 1.513 0 5.3147 2.0564 7.5995 4.1106 1.3364 1.2016 3.6483 2.7998 5.1374 3.5515 2.9649 1.4967 3.4844 2.4395 2.8822 5.2311-0.79755 3.6975 0.92223 6.8285 6.3088 11.486 4.4967 3.8876 5.6782 5.3586 8.5254 10.615 1.3117 2.4212 2.7051 4.7611 3.0964 5.1998 1.0838 1.2146 4.9898 1.966 8.3903 1.614 10.744-1.1121 13.02-1.7844 18.436-5.4455 5.3778-3.6354 7.0092-3.6708 15.112-0.32844 7.6298 3.1471 9.0585 3.1542 13.074 0.06459 1.6269-1.2519 4.2313-3.455 5.7874-4.8957 2.5769-2.3857 2.9362-2.9694 4.0249-6.5386 1.7414-5.7091 3.1771-6.8226 10.588-8.2112 3.0458-0.57074 5.677-1.524 9.9278-3.5966 3.2018-1.5611 6.4383-2.8218 7.25-2.8239 2.2385-0.0059 6.487 2.3621 7.5396 4.2022 1.3861 2.4233 1.2663 6.8299-0.27735 10.202-0.68012 1.4856-1.6555 2.9253-2.1673 3.1992-0.51184 0.27395-1.2651 1.1886-1.6738 2.0325-0.68671 1.4178-0.67554 1.6604 0.14646 3.1941 0.81124 1.5135 0.82766 1.8082 0.18594 3.344-0.90043 2.1549-1.4926 2.8514-3.1556 3.7114-0.7414 0.38341-1.348 0.87688-1.348 1.0967 0 0.21976 0.66223 1.2328 1.4715 2.2512 1.4848 1.8685 1.6067 2.896 0.68289 5.7572-0.46681 1.4457 0.88978 1.6338 3.5282 0.489 2.7619-1.1983 5.1836-0.89991 9.3887 1.1571 3.9741 1.9439 4.6706 3.2921 1.7007 3.2921-1.0569 0-2.9898-0.22908-4.2955-0.50908-2.7957-0.59959-4.0207-0.11456-8.103 3.2082-2.5761 2.0968-3.3534 2.3434-5.0897 1.6149z" fill="#fff" stroke-width=".47753"/>
 </g>
</svg>
